<svg width="153" height="60" viewBox="0 0 153 60" fill="none" xmlns="http://www.w3.org/2000/svg">
<rect y="0.772461" width="152.08" height="58.4129" rx="7.8392" fill="black"/>
<path d="M58.4843 15.2648C58.2624 14.798 57.9411 14.4384 57.5202 14.1859C57.0993 13.9257 56.6096 13.7956 56.051 13.7956C55.4925 13.7956 54.9874 13.9257 54.536 14.1859C54.0922 14.4384 53.7402 14.8057 53.48 15.2878C53.2275 15.7622 53.1013 16.3131 53.1013 16.9405C53.1013 17.568 53.2275 18.1189 53.48 18.5933C53.7402 19.0678 54.0922 19.435 54.536 19.6952C54.9874 19.9477 55.4925 20.074 56.051 20.074C56.8315 20.074 57.4743 19.8406 57.9793 19.3738C58.4843 18.9071 58.7789 18.2758 58.8631 17.48H55.6723V16.6306H59.9764V17.4341C59.9152 18.0922 59.7086 18.6966 59.3566 19.2476C59.0047 19.7909 58.5417 20.2232 57.9678 20.5446C57.3939 20.8583 56.755 21.0152 56.051 21.0152C55.3088 21.0152 54.6316 20.843 54.0195 20.4987C53.4073 20.1467 52.9214 19.6608 52.5618 19.041C52.2098 18.4212 52.0338 17.721 52.0338 16.9405C52.0338 16.1601 52.2098 15.4599 52.5618 14.8401C52.9214 14.2127 53.4073 13.7268 54.0195 13.3824C54.6316 13.0305 55.3088 12.8545 56.051 12.8545C56.9004 12.8545 57.6503 13.0649 58.3007 13.4857C58.9587 13.9066 59.437 14.4996 59.7354 15.2648H58.4843ZM67.0963 17.5603C67.0963 17.7593 67.0849 17.9697 67.0619 18.1916H62.0346C62.0729 18.8114 62.2833 19.2973 62.6659 19.6493C63.0562 19.9936 63.5267 20.1658 64.0777 20.1658C64.5291 20.1658 64.9041 20.0625 65.2025 19.8559C65.5086 19.6416 65.7228 19.3585 65.8453 19.0065H66.9701C66.8017 19.611 66.4651 20.1046 65.96 20.4872C65.455 20.8621 64.8276 21.0496 64.0777 21.0496C63.4808 21.0496 62.9452 20.9157 62.4708 20.6479C62.004 20.3801 61.6367 20.0013 61.3689 19.5116C61.1011 19.0142 60.9672 18.4403 60.9672 17.7899C60.9672 17.1395 61.0973 16.5694 61.3574 16.0797C61.6176 15.59 61.9811 15.2151 62.4478 14.9549C62.9223 14.6871 63.4655 14.5532 64.0777 14.5532C64.6745 14.5532 65.2025 14.6833 65.6616 14.9434C66.1207 15.2036 66.4727 15.5632 66.7176 16.0223C66.9701 16.4738 67.0963 16.9865 67.0963 17.5603ZM66.0174 17.3423C66.0174 16.9444 65.9294 16.6039 65.7534 16.3207C65.5774 16.03 65.3364 15.8119 65.0303 15.6665C64.7319 15.5135 64.3991 15.437 64.0318 15.437C63.5038 15.437 63.0523 15.6053 62.6774 15.942C62.3101 16.2787 62.0997 16.7454 62.0461 17.3423H66.0174ZM69.749 15.5173V19.2246C69.749 19.5307 69.8141 19.7488 69.9442 19.8789C70.0742 20.0013 70.3 20.0625 70.6214 20.0625H71.3904V20.9463H70.4492C69.8676 20.9463 69.4315 20.8124 69.1407 20.5446C68.8499 20.2768 68.7046 19.8368 68.7046 19.2246V15.5173H67.8896V14.6565H68.7046V13.0725H69.749V14.6565H71.3904V15.5173H69.749ZM76.2553 13.635C76.0564 13.635 75.888 13.5661 75.7503 13.4284C75.6126 13.2906 75.5437 13.1223 75.5437 12.9233C75.5437 12.7244 75.6126 12.556 75.7503 12.4183C75.888 12.2806 76.0564 12.2117 76.2553 12.2117C76.4466 12.2117 76.6073 12.2806 76.7374 12.4183C76.8751 12.556 76.944 12.7244 76.944 12.9233C76.944 13.1223 76.8751 13.2906 76.7374 13.4284C76.6073 13.5661 76.4466 13.635 76.2553 13.635ZM76.7603 14.6565V20.9463H75.7159V14.6565H76.7603ZM79.8145 15.5173V19.2246C79.8145 19.5307 79.8795 19.7488 80.0096 19.8789C80.1397 20.0013 80.3654 20.0625 80.6868 20.0625H81.4558V20.9463H80.5146C79.9331 20.9463 79.497 20.8124 79.2062 20.5446C78.9154 20.2768 78.77 19.8368 78.77 19.2246V15.5173H77.9551V14.6565H78.77V13.0725H79.8145V14.6565H81.4558V15.5173H79.8145ZM88.5245 21.0496C87.9353 21.0496 87.3997 20.9157 86.9176 20.6479C86.4432 20.3801 86.0683 20.0013 85.7928 19.5116C85.525 19.0142 85.3911 18.4403 85.3911 17.7899C85.3911 17.1471 85.5288 16.5809 85.8043 16.0912C86.0874 15.5938 86.47 15.2151 86.9521 14.9549C87.4341 14.6871 87.9736 14.5532 88.5704 14.5532C89.1673 14.5532 89.7067 14.6871 90.1888 14.9549C90.6709 15.2151 91.0496 15.59 91.3251 16.0797C91.6082 16.5694 91.7498 17.1395 91.7498 17.7899C91.7498 18.4403 91.6044 19.0142 91.3136 19.5116C91.0305 20.0013 90.6441 20.3801 90.1544 20.6479C89.6646 20.9157 89.1214 21.0496 88.5245 21.0496ZM88.5245 20.1314C88.8995 20.1314 89.2514 20.0434 89.5805 19.8674C89.9095 19.6914 90.1735 19.4274 90.3724 19.0754C90.579 18.7234 90.6823 18.2949 90.6823 17.7899C90.6823 17.2849 90.5829 16.8564 90.3839 16.5044C90.185 16.1524 89.9248 15.8922 89.6034 15.7239C89.282 15.5479 88.9339 15.4599 88.5589 15.4599C88.1764 15.4599 87.8244 15.5479 87.503 15.7239C87.1893 15.8922 86.9368 16.1524 86.7455 16.5044C86.5542 16.8564 86.4585 17.2849 86.4585 17.7899C86.4585 18.3026 86.5503 18.7349 86.734 19.0869C86.9253 19.4389 87.1778 19.7029 87.4915 19.8789C87.8052 20.0472 88.1496 20.1314 88.5245 20.1314ZM96.1876 14.5417C96.9528 14.5417 97.5726 14.7751 98.047 15.2418C98.5214 15.7009 98.7586 16.3667 98.7586 17.239V20.9463H97.7256V17.3882C97.7256 16.7607 97.5688 16.2825 97.2551 15.9535C96.9413 15.6168 96.5128 15.4484 95.9695 15.4484C95.4186 15.4484 94.9786 15.6206 94.6496 15.9649C94.3282 16.3093 94.1675 16.8105 94.1675 17.4685V20.9463H93.1231V14.6565H94.1675V15.5517C94.3741 15.2304 94.6534 14.9817 95.0054 14.8057C95.3651 14.6297 95.7591 14.5417 96.1876 14.5417Z" fill="white"/>
<g clip-path="url(#clip0_508_2028)">
<path d="M41.7686 43.9702C44.5094 42.4651 46.5875 41.3184 46.7665 41.2294C47.3393 40.9245 47.9311 40.1181 46.7665 39.4918C46.3905 39.2949 44.366 38.1837 41.7686 36.751L38.168 40.3873L41.7684 43.9702H41.7686Z" fill="#FFD900"/>
<path d="M38.1678 40.3872L26.7026 51.9424C26.9716 51.9781 27.2754 51.9067 27.6338 51.7098C28.3858 51.2982 36.3579 46.9444 41.7686 43.9709L38.1678 40.3872Z" fill="#F43249"/>
<path d="M38.1679 40.3873L41.7683 36.7686C41.7683 36.7686 28.4402 29.4951 27.6337 29.0659C27.3302 28.8854 26.9897 28.8321 26.6851 28.8854L38.1679 40.3871V40.3873Z" fill="#00EE76"/>
<path d="M38.1679 40.3869L26.6849 28.8853C26.2188 28.9929 25.825 29.4047 25.825 30.2464V50.5804C25.825 51.3513 26.1298 51.9064 26.7025 51.9597L38.1677 40.3867L38.1679 40.3869Z" fill="#00D3FF"/>
<path d="M75.5562 38.0937C73.4962 38.0937 71.7942 39.6879 71.7942 41.8736C71.7942 44.0415 73.4783 45.6535 75.5564 45.6535C77.6342 45.6535 79.3182 44.0594 79.3182 41.8736C79.3182 39.6879 77.6342 38.0937 75.5562 38.0937ZM75.5562 44.1494C74.4273 44.1494 73.4426 43.1996 73.4426 41.8567C73.4426 40.4952 74.4281 39.5641 75.5562 39.5641C76.6843 39.5641 77.6698 40.4952 77.6698 41.8567C77.6698 43.1996 76.6843 44.1494 75.5562 44.1494ZM67.3694 38.0937C65.2913 38.0937 63.6071 39.6879 63.6071 41.8736C63.6071 44.0415 65.2913 45.6535 67.3694 45.6535C69.4472 45.6535 71.1314 44.0594 71.1314 41.8736C71.1314 39.6879 69.4474 38.0937 67.3694 38.0937ZM67.3694 44.1494C66.2403 44.1494 65.2558 43.1996 65.2558 41.8567C65.2558 40.4952 66.2413 39.5641 67.3694 39.5641C68.4982 39.5641 69.4829 40.4952 69.4829 41.8567C69.4829 43.1996 68.5151 44.1494 67.3694 44.1494ZM57.6417 39.2583V40.8524H61.4392C61.3314 41.7481 61.0277 42.4109 60.5795 42.8591C60.0244 43.4142 59.1645 44.0237 57.6417 44.0237C55.2945 44.0237 53.4858 42.1249 53.4858 39.7779C53.4858 37.4309 55.2955 35.4963 57.6417 35.4963C58.9132 35.4963 59.8275 35.998 60.5081 36.6432L61.6362 35.5141C60.6864 34.6008 59.4149 33.9023 57.6417 33.9023C54.4346 33.9023 51.7473 36.5353 51.7473 39.7422C51.7473 42.9493 54.4346 45.5823 57.6417 45.5823C59.3792 45.5823 60.6695 45.0093 61.7084 43.9338C62.7652 42.8769 63.0877 41.3897 63.0877 40.1896C63.0877 39.8136 63.0522 39.4731 62.9979 39.1863L57.6417 39.2583ZM97.4477 40.4943C97.1429 39.6522 96.176 38.0937 94.2406 38.0937C92.3053 38.0937 90.7112 39.6167 90.7112 41.8736C90.7112 43.9872 92.3053 45.6535 94.4199 45.6535C96.1395 45.6535 97.125 44.5966 97.5367 43.9872L96.2653 43.1274C95.8349 43.7547 95.262 44.1663 94.4199 44.1663C93.5778 44.1663 92.987 43.7902 92.6102 43.0195L97.6081 40.9238L97.4477 40.4943ZM92.3597 41.7667C92.3242 40.3152 93.4887 39.5631 94.312 39.5631C94.975 39.5631 95.5124 39.8856 95.7092 40.3695L92.3597 41.7667ZM88.293 45.403H89.9415V34.3317H88.293V45.403ZM85.6065 38.9358H85.553C85.1769 38.4876 84.4784 38.0937 83.582 38.0937C81.7009 38.0937 79.9991 39.7601 79.9991 41.8736C79.9991 43.9872 81.7187 45.6358 83.582 45.6358C84.4774 45.6358 85.1761 45.2418 85.553 44.7757H85.6065V45.3132C85.6065 46.7647 84.8356 47.5344 83.5999 47.5344C82.5965 47.5344 81.9692 46.8002 81.7188 46.1908L80.286 46.8002C80.6976 47.8035 81.7909 49.0395 83.5999 49.0395C85.5343 49.0395 87.1649 47.8928 87.1649 45.1162V38.3264H85.6065V38.9358ZM83.7254 44.1494C82.5965 44.1494 81.6475 43.1996 81.6475 41.8746C81.6475 40.5496 82.5973 39.5818 83.7254 39.5818C84.8366 39.5818 85.732 40.5496 85.732 41.8746C85.7313 43.1818 84.8356 44.1494 83.7254 44.1494ZM105.133 34.3319H101.192V45.403H102.84V41.2106H105.133C106.961 41.2106 108.752 39.8846 108.752 37.7713C108.752 35.6577 106.961 34.3319 105.133 34.3319ZM105.186 39.671H102.857V35.8723H105.186C106.404 35.8723 107.121 36.8935 107.121 37.7711C107.104 38.631 106.405 39.671 105.186 39.671ZM115.327 38.0759C114.144 38.0759 112.908 38.5955 112.407 39.7779L113.858 40.3874C114.181 39.7779 114.754 39.581 115.363 39.581C116.223 39.581 117.083 40.1004 117.101 41.0137V41.1216C116.796 40.9425 116.17 40.6912 115.381 40.6912C113.805 40.6912 112.21 41.569 112.21 43.1818C112.21 44.6688 113.5 45.618 114.933 45.618C116.044 45.618 116.652 45.1162 117.028 44.5254H117.082V45.3854H118.676V41.1392C118.658 39.1869 117.208 38.0759 115.327 38.0759ZM115.13 44.1315C114.592 44.1315 113.839 43.8624 113.839 43.2004C113.839 42.3405 114.771 42.018 115.577 42.018C116.293 42.018 116.634 42.1792 117.082 42.394C116.957 43.4152 116.079 44.1315 115.13 44.1315ZM124.427 38.3274L122.546 43.1104H122.492L120.54 38.3272H118.767L121.705 45.027L120.038 48.7713H121.758L126.254 38.3272L124.427 38.3274ZM109.666 45.403H111.314V34.3317H109.666V45.403Z" fill="white"/>
</g>
<defs>
<clipPath id="clip0_508_2028">
<rect width="100.43" height="23.1461" fill="white" transform="translate(25.825 28.8657)"/>
</clipPath>
</defs>
</svg>
