<svg width="94" height="94" viewBox="0 0 94 94" fill="none" xmlns="http://www.w3.org/2000/svg">
<path d="M28.25 15.7576V22.0076H87.625V34.3797L80.6914 56.3826H26.2836L18.4711 0.125H0.125V6.375H13.0289L20.8414 62.6326H85.275L93.875 35.341V15.7576H28.25ZM31.5672 68.9422C28.2531 68.946 25.0759 70.2641 22.7325 72.6075C20.3891 74.9509 19.071 78.1282 19.0672 81.4422C19.0672 84.7574 20.3841 87.9368 22.7284 90.281C25.0726 92.6252 28.252 93.9422 31.5672 93.9422C34.8824 93.9422 38.0618 92.6252 40.406 90.281C42.7502 87.9368 44.0672 84.7574 44.0672 81.4422C44.0635 78.1281 42.7453 74.9509 40.4019 72.6075C38.0585 70.2641 34.8812 68.9459 31.5672 68.9422ZM31.5672 87.6922C30.3311 87.6922 29.1227 87.3256 28.0949 86.6389C27.0671 85.9521 26.266 84.976 25.7929 83.834C25.3199 82.6919 25.1961 81.4353 25.4373 80.2229C25.6784 79.0105 26.2737 77.8969 27.1478 77.0228C28.0218 76.1487 29.1355 75.5534 30.3479 75.3123C31.5603 75.0711 32.8169 75.1949 33.959 75.668C35.101 76.141 36.0771 76.9421 36.7639 77.9699C37.4506 78.9977 37.8172 80.2061 37.8172 81.4422C37.8152 83.0992 37.1561 84.6878 35.9844 85.8594C34.8128 87.0311 33.2242 87.6902 31.5672 87.6922ZM75.3172 68.9422C72.0031 68.946 68.8259 70.2641 66.4825 72.6075C64.1391 74.9509 62.821 78.1282 62.8172 81.4422C62.8172 84.7574 64.1341 87.9368 66.4783 90.281C68.8226 92.6252 72.002 93.9422 75.3172 93.9422C78.6324 93.9422 81.8118 92.6252 84.156 90.281C86.5002 87.9368 87.8172 84.7574 87.8172 81.4422C87.8135 78.1281 86.4953 74.9509 84.1519 72.6075C81.8085 70.2641 78.6313 68.9459 75.3172 68.9422ZM75.3172 87.6922C74.0811 87.6922 72.8727 87.3256 71.8449 86.6389C70.8171 85.9521 70.016 84.976 69.5429 83.834C69.0699 82.6919 68.9461 81.4353 69.1873 80.2229C69.4284 79.0105 70.0237 77.8969 70.8978 77.0228C71.7719 76.1487 72.8855 75.5534 74.0979 75.3123C75.3103 75.0711 76.5669 75.1949 77.709 75.668C78.851 76.141 79.8271 76.9421 80.5139 77.9699C81.2006 78.9977 81.5672 80.2061 81.5672 81.4422C81.5652 83.0992 80.9061 84.6878 79.7344 85.8594C78.5628 87.0311 76.9742 87.6902 75.3172 87.6922Z" fill="#3D7E47"/>
</svg>
