<svg width="153" height="60" viewBox="0 0 153 60" fill="none" xmlns="http://www.w3.org/2000/svg">
<rect x="0.919678" y="0.816895" width="152.08" height="58.3236" rx="7.8392" fill="black"/>
<path d="M36.7702 12.142C37.6259 12.142 38.3653 12.3034 38.9883 12.6262C39.6188 12.9414 40.0992 13.3956 40.4295 13.9886C40.7672 14.5815 40.9361 15.2796 40.9361 16.0828C40.9361 16.8859 40.7672 17.584 40.4295 18.177C40.0992 18.7625 39.6188 19.2129 38.9883 19.5281C38.3653 19.8359 37.6259 19.9897 36.7702 19.9897H34.3269V12.142H36.7702ZM36.7702 19.1453C37.7835 19.1453 38.5567 18.8788 39.0896 18.3459C39.6225 17.8054 39.889 17.0511 39.889 16.0828C39.889 15.107 39.6188 14.3451 39.0783 13.7971C38.5454 13.2492 37.776 12.9752 36.7702 12.9752H35.3515V19.1453H36.7702ZM44.9785 20.0911C44.4006 20.0911 43.8751 19.9597 43.4023 19.697C42.9369 19.4343 42.5691 19.0627 42.2988 18.5823C42.0361 18.0944 41.9048 17.5315 41.9048 16.8934C41.9048 16.2629 42.0399 15.7075 42.3101 15.2271C42.5878 14.7392 42.9631 14.3676 43.436 14.1124C43.9089 13.8497 44.4381 13.7183 45.0236 13.7183C45.6091 13.7183 46.1383 13.8497 46.6111 14.1124C47.084 14.3676 47.4556 14.7354 47.7258 15.2158C48.0035 15.6962 48.1424 16.2554 48.1424 16.8934C48.1424 17.5315 47.9998 18.0944 47.7146 18.5823C47.4368 19.0627 47.0578 19.4343 46.5774 19.697C46.097 19.9597 45.564 20.0911 44.9785 20.0911ZM44.9785 19.1903C45.3464 19.1903 45.6916 19.104 46.0144 18.9314C46.3372 18.7587 46.5961 18.4998 46.7913 18.1545C46.994 17.8092 47.0953 17.3889 47.0953 16.8934C47.0953 16.398 46.9977 15.9777 46.8026 15.6324C46.6074 15.2871 46.3522 15.0319 46.0369 14.8668C45.7217 14.6941 45.3801 14.6078 45.0123 14.6078C44.637 14.6078 44.2917 14.6941 43.9765 14.8668C43.6687 15.0319 43.421 15.2871 43.2334 15.6324C43.0457 15.9777 42.9519 16.398 42.9519 16.8934C42.9519 17.3964 43.042 17.8205 43.2221 18.1657C43.4098 18.511 43.6575 18.77 43.9652 18.9426C44.273 19.1078 44.6107 19.1903 44.9785 19.1903ZM57.7088 13.8197L55.7835 19.9897H54.7251L53.2389 15.092L51.7527 19.9897H50.6943L48.7577 13.8197H49.8048L51.2235 18.9989L52.7547 13.8197H53.8019L55.2993 19.0102L56.6955 13.8197H57.7088ZM61.7319 13.7071C62.4825 13.7071 63.0905 13.936 63.5559 14.3939C64.0213 14.8443 64.254 15.4973 64.254 16.353V19.9897H63.2406V16.4994C63.2406 15.8839 63.0868 15.4147 62.779 15.092C62.4713 14.7617 62.0509 14.5966 61.518 14.5966C60.9775 14.5966 60.5459 14.7654 60.2232 15.1032C59.9079 15.441 59.7503 15.9327 59.7503 16.5782V19.9897H58.7257V13.8197H59.7503V14.6979C59.9529 14.3826 60.2269 14.1387 60.5722 13.966C60.925 13.7934 61.3116 13.7071 61.7319 13.7071ZM66.9523 11.6579V19.9897H65.9277V11.6579H66.9523ZM71.3895 20.0911C70.8115 20.0911 70.2861 19.9597 69.8132 19.697C69.3478 19.4343 68.98 19.0627 68.7098 18.5823C68.447 18.0944 68.3157 17.5315 68.3157 16.8934C68.3157 16.2629 68.4508 15.7075 68.721 15.2271C68.9987 14.7392 69.3741 14.3676 69.8469 14.1124C70.3198 13.8497 70.849 13.7183 71.4345 13.7183C72.02 13.7183 72.5492 13.8497 73.0221 14.1124C73.4949 14.3676 73.8665 14.7354 74.1367 15.2158C74.4145 15.6962 74.5533 16.2554 74.5533 16.8934C74.5533 17.5315 74.4107 18.0944 74.1255 18.5823C73.8477 19.0627 73.4687 19.4343 72.9883 19.697C72.5079 19.9597 71.9749 20.0911 71.3895 20.0911ZM71.3895 19.1903C71.7573 19.1903 72.1025 19.104 72.4253 18.9314C72.7481 18.7587 73.007 18.4998 73.2022 18.1545C73.4049 17.8092 73.5062 17.3889 73.5062 16.8934C73.5062 16.398 73.4086 15.9777 73.2135 15.6324C73.0183 15.2871 72.7631 15.0319 72.4478 14.8668C72.1326 14.6941 71.791 14.6078 71.4232 14.6078C71.0479 14.6078 70.7026 14.6941 70.3874 14.8668C70.0796 15.0319 69.8319 15.2871 69.6443 15.6324C69.4566 15.9777 69.3628 16.398 69.3628 16.8934C69.3628 17.3964 69.4529 17.8205 69.633 18.1657C69.8207 18.511 70.0684 18.77 70.3761 18.9426C70.6839 19.1078 71.0217 19.1903 71.3895 19.1903ZM75.5177 16.8822C75.5177 16.2517 75.6453 15.7 75.9005 15.2271C76.1557 14.7467 76.5047 14.3751 76.9476 14.1124C77.398 13.8497 77.8971 13.7183 78.4451 13.7183C78.9855 13.7183 79.4546 13.8347 79.8525 14.0674C80.2503 14.3001 80.5468 14.5928 80.742 14.9456V13.8197H81.7778V19.9897H80.742V18.8413C80.5393 19.2016 80.2353 19.5018 79.83 19.742C79.4321 19.9747 78.9667 20.0911 78.4338 20.0911C77.8859 20.0911 77.3904 19.956 76.9476 19.6857C76.5047 19.4155 76.1557 19.0365 75.9005 18.5486C75.6453 18.0607 75.5177 17.5052 75.5177 16.8822ZM80.742 16.8934C80.742 16.4281 80.6481 16.0227 80.4605 15.6774C80.2728 15.3322 80.0176 15.0694 79.6948 14.8893C79.3796 14.7016 79.0305 14.6078 78.6477 14.6078C78.2649 14.6078 77.9159 14.6979 77.6006 14.878C77.2854 15.0582 77.0339 15.3209 76.8462 15.6662C76.6586 16.0115 76.5648 16.4168 76.5648 16.8822C76.5648 17.3551 76.6586 17.7679 76.8462 18.1207C77.0339 18.466 77.2854 18.7325 77.6006 18.9201C77.9159 19.1003 78.2649 19.1903 78.6477 19.1903C79.0305 19.1903 79.3796 19.1003 79.6948 18.9201C80.0176 18.7325 80.2728 18.466 80.4605 18.1207C80.6481 17.7679 80.742 17.3588 80.742 16.8934ZM83.1265 16.8822C83.1265 16.2517 83.2541 15.7 83.5093 15.2271C83.7645 14.7467 84.1135 14.3751 84.5564 14.1124C85.0068 13.8497 85.5097 13.7183 86.0651 13.7183C86.5455 13.7183 86.9921 13.8309 87.405 14.0561C87.8178 14.2738 88.1331 14.5628 88.3508 14.9231V11.6579H89.3866V19.9897H88.3508V18.83C88.1481 19.1978 87.8478 19.5018 87.45 19.742C87.0522 19.9747 86.5868 20.0911 86.0539 20.0911C85.5059 20.0911 85.0068 19.956 84.5564 19.6857C84.1135 19.4155 83.7645 19.0365 83.5093 18.5486C83.2541 18.0607 83.1265 17.5052 83.1265 16.8822ZM88.3508 16.8934C88.3508 16.4281 88.2569 16.0227 88.0693 15.6774C87.8816 15.3322 87.6264 15.0694 87.3037 14.8893C86.9884 14.7016 86.6394 14.6078 86.2565 14.6078C85.8737 14.6078 85.5247 14.6979 85.2094 14.878C84.8942 15.0582 84.6427 15.3209 84.4551 15.6662C84.2674 16.0115 84.1736 16.4168 84.1736 16.8822C84.1736 17.3551 84.2674 17.7679 84.4551 18.1207C84.6427 18.466 84.8942 18.7325 85.2094 18.9201C85.5247 19.1003 85.8737 19.1903 86.2565 19.1903C86.6394 19.1903 86.9884 19.1003 87.3037 18.9201C87.6264 18.7325 87.8816 18.466 88.0693 18.1207C88.2569 17.7679 88.3508 17.3588 88.3508 16.8934ZM96.6306 14.6641H95.3358V19.9897H94.3112V14.6641H93.5118V13.8197H94.3112V13.3806C94.3112 12.69 94.4876 12.1871 94.8404 11.8718C95.2007 11.549 95.7749 11.3877 96.5631 11.3877V12.2434C96.1127 12.2434 95.7937 12.3334 95.606 12.5136C95.4259 12.6862 95.3358 12.9752 95.3358 13.3806V13.8197H96.6306V14.6641ZM98.8499 14.8217C99.03 14.4689 99.2852 14.195 99.6155 13.9998C99.9533 13.8047 100.362 13.7071 100.843 13.7071V14.7654H100.573C99.4241 14.7654 98.8499 15.3885 98.8499 16.6345V19.9897H97.8253V13.8197H98.8499V14.8217ZM104.716 20.0911C104.138 20.0911 103.613 19.9597 103.14 19.697C102.675 19.4343 102.307 19.0627 102.037 18.5823C101.774 18.0944 101.643 17.5315 101.643 16.8934C101.643 16.2629 101.778 15.7075 102.048 15.2271C102.326 14.7392 102.701 14.3676 103.174 14.1124C103.647 13.8497 104.176 13.7183 104.762 13.7183C105.347 13.7183 105.876 13.8497 106.349 14.1124C106.822 14.3676 107.194 14.7354 107.464 15.2158C107.741 15.6962 107.88 16.2554 107.88 16.8934C107.88 17.5315 107.738 18.0944 107.452 18.5823C107.175 19.0627 106.796 19.4343 106.315 19.697C105.835 19.9597 105.302 20.0911 104.716 20.0911ZM104.716 19.1903C105.084 19.1903 105.43 19.104 105.752 18.9314C106.075 18.7587 106.334 18.4998 106.529 18.1545C106.732 17.8092 106.833 17.3889 106.833 16.8934C106.833 16.398 106.736 15.9777 106.54 15.6324C106.345 15.2871 106.09 15.0319 105.775 14.8668C105.46 14.6941 105.118 14.6078 104.75 14.6078C104.375 14.6078 104.03 14.6941 103.714 14.8668C103.407 15.0319 103.159 15.2871 102.971 15.6324C102.784 15.9777 102.69 16.398 102.69 16.8934C102.69 17.3964 102.78 17.8205 102.96 18.1657C103.148 18.511 103.395 18.77 103.703 18.9426C104.011 19.1078 104.349 19.1903 104.716 19.1903ZM116.647 13.7071C117.128 13.7071 117.556 13.8084 117.931 14.0111C118.306 14.2062 118.603 14.5027 118.82 14.9006C119.038 15.2984 119.147 15.7825 119.147 16.353V19.9897H118.134V16.4994C118.134 15.8839 117.98 15.4147 117.672 15.092C117.372 14.7617 116.963 14.5966 116.445 14.5966C115.912 14.5966 115.488 14.7692 115.172 15.1145C114.857 15.4523 114.699 15.9439 114.699 16.5894V19.9897H113.686V16.4994C113.686 15.8839 113.532 15.4147 113.225 15.092C112.924 14.7617 112.515 14.5966 111.997 14.5966C111.464 14.5966 111.04 14.7692 110.725 15.1145C110.41 15.4523 110.252 15.9439 110.252 16.5894V19.9897H109.227V13.8197H110.252V14.7091C110.455 14.3864 110.725 14.1387 111.063 13.966C111.408 13.7934 111.787 13.7071 112.2 13.7071C112.718 13.7071 113.176 13.8234 113.574 14.0561C113.971 14.2888 114.268 14.6303 114.463 15.0807C114.636 14.6453 114.921 14.3076 115.319 14.0674C115.717 13.8272 116.159 13.7071 116.647 13.7071Z" fill="white"/>
<g clip-path="url(#clip0_511_2036)">
<path d="M44.2589 29.5122C44.2155 29.4637 42.6531 29.5313 41.2934 31.007C39.9338 32.4814 40.1429 34.1727 40.1736 34.2161C40.2042 34.2594 42.1123 34.327 43.3303 32.6115C44.5484 30.896 44.3022 29.5619 44.2589 29.5122ZM48.4858 44.4772C48.4245 44.3547 45.5203 42.9033 45.7907 40.1126C46.0611 37.3206 47.9271 36.5553 47.9564 36.4724C47.9858 36.3895 47.195 35.4648 46.357 34.9967C45.7417 34.6666 45.0608 34.4776 44.3635 34.4431C44.2257 34.4393 43.7474 34.3219 42.764 34.5911C42.1161 34.7684 40.6557 35.3423 40.2539 35.3653C39.8509 35.3882 38.6519 34.6995 37.3624 34.5171C36.5372 34.3577 35.6622 34.6842 35.036 34.9354C34.411 35.1854 33.2223 35.8971 32.3907 37.7887C31.5591 39.6789 31.994 42.6737 32.3052 43.6048C32.6164 44.5346 33.1024 46.0588 33.9289 47.171C34.6635 48.426 35.638 49.2972 36.0449 49.5931C36.4517 49.889 37.5997 50.0854 38.3956 49.6785C39.0358 49.2857 40.1914 49.0599 40.648 49.0765C41.1034 49.0931 42.0013 49.2729 42.9209 49.764C43.6492 50.0153 44.3379 49.9107 45.028 49.6301C45.718 49.3482 46.7167 48.2794 47.8825 46.1123C48.325 45.1047 48.5266 44.5601 48.4858 44.4772Z" fill="white"/>
<path d="M44.2589 29.5122C44.2155 29.4637 42.6531 29.5313 41.2934 31.007C39.9338 32.4814 40.1429 34.1727 40.1736 34.2161C40.2042 34.2594 42.1123 34.327 43.3303 32.6115C44.5484 30.896 44.3022 29.5619 44.2589 29.5122ZM48.4858 44.4772C48.4245 44.3547 45.5203 42.9033 45.7907 40.1126C46.0611 37.3206 47.9271 36.5553 47.9564 36.4724C47.9858 36.3895 47.195 35.4648 46.357 34.9967C45.7417 34.6666 45.0608 34.4776 44.3635 34.4431C44.2257 34.4393 43.7474 34.3219 42.764 34.5911C42.1161 34.7684 40.6557 35.3423 40.2539 35.3653C39.8509 35.3882 38.6519 34.6995 37.3624 34.5171C36.5372 34.3577 35.6622 34.6842 35.036 34.9354C34.411 35.1854 33.2223 35.8971 32.3907 37.7887C31.5591 39.6789 31.994 42.6737 32.3052 43.6048C32.6164 44.5346 33.1024 46.0588 33.9289 47.171C34.6635 48.426 35.638 49.2972 36.0449 49.5931C36.4517 49.889 37.5997 50.0854 38.3956 49.6785C39.0358 49.2857 40.1914 49.0599 40.648 49.0765C41.1034 49.0931 42.0013 49.2729 42.9209 49.764C43.6492 50.0153 44.3379 49.9107 45.028 49.6301C45.718 49.3482 46.7167 48.2794 47.8825 46.1123C48.325 45.1047 48.5266 44.5601 48.4858 44.4772Z" fill="white"/>
</g>
<path d="M60.8757 41.9107H56.7801L56.0764 43.9092H54.4016L57.9061 34.1136H59.7638L63.2683 43.9092H61.5794L60.8757 41.9107ZM60.4253 40.6018L58.835 36.0558L57.2305 40.6018H60.4253ZM66.3965 37.2944C66.6686 36.9378 67.0392 36.6376 67.5083 36.3936C67.9775 36.1497 68.5076 36.0277 69.0987 36.0277C69.7743 36.0277 70.3888 36.1966 70.9424 36.5344C71.5054 36.8628 71.9464 37.3272 72.2654 37.9277C72.5844 38.5282 72.7439 39.2178 72.7439 39.9966C72.7439 40.7753 72.5844 41.4744 72.2654 42.0936C71.9464 42.7035 71.5054 43.182 70.9424 43.5292C70.3888 43.867 69.7743 44.0358 69.0987 44.0358C68.5076 44.0358 67.9822 43.9186 67.5224 43.684C67.0627 43.44 66.6873 43.1398 66.3965 42.7833V47.5966H64.792V36.1544H66.3965V37.2944ZM71.1113 39.9966C71.1113 39.4618 70.9987 39.002 70.7735 38.6173C70.5577 38.2232 70.2669 37.9277 69.9009 37.7307C69.5444 37.5242 69.1597 37.421 68.7469 37.421C68.3434 37.421 67.9587 37.5242 67.5928 37.7307C67.2362 37.9371 66.9454 38.2373 66.7202 38.6314C66.5044 39.0255 66.3965 39.4899 66.3965 40.0247C66.3965 40.5595 66.5044 41.0287 66.7202 41.4321C66.9454 41.8262 67.2362 42.1265 67.5928 42.3329C67.9587 42.5393 68.3434 42.6425 68.7469 42.6425C69.1597 42.6425 69.5444 42.5393 69.9009 42.3329C70.2669 42.1171 70.5577 41.8074 70.7735 41.404C70.9987 41.0005 71.1113 40.5314 71.1113 39.9966ZM75.935 37.2944C76.2071 36.9378 76.5777 36.6376 77.0468 36.3936C77.516 36.1497 78.0461 36.0277 78.6372 36.0277C79.3128 36.0277 79.9273 36.1966 80.4809 36.5344C81.0439 36.8628 81.4849 37.3272 81.8039 37.9277C82.1229 38.5282 82.2824 39.2178 82.2824 39.9966C82.2824 40.7753 82.1229 41.4744 81.8039 42.0936C81.4849 42.7035 81.0439 43.182 80.4809 43.5292C79.9273 43.867 79.3128 44.0358 78.6372 44.0358C78.0461 44.0358 77.5207 43.9186 77.0609 43.684C76.6011 43.44 76.2258 43.1398 75.935 42.7833V47.5966H74.3305V36.1544H75.935V37.2944ZM80.6498 39.9966C80.6498 39.4618 80.5372 39.002 80.312 38.6173C80.0962 38.2232 79.8053 37.9277 79.4394 37.7307C79.0829 37.5242 78.6982 37.421 78.2853 37.421C77.8819 37.421 77.4972 37.5242 77.1313 37.7307C76.7747 37.9371 76.4839 38.2373 76.2587 38.6314C76.0429 39.0255 75.935 39.4899 75.935 40.0247C75.935 40.5595 76.0429 41.0287 76.2587 41.4321C76.4839 41.8262 76.7747 42.1265 77.1313 42.3329C77.4972 42.5393 77.8819 42.6425 78.2853 42.6425C78.6982 42.6425 79.0829 42.5393 79.4394 42.3329C79.8053 42.1171 80.0962 41.8074 80.312 41.404C80.5372 41.0005 80.6498 40.5314 80.6498 39.9966ZM90.748 44.0077C90.0912 44.0077 89.5001 43.8951 88.9746 43.6699C88.4492 43.4354 88.0363 43.107 87.7361 42.6847C87.4359 42.2625 87.2857 41.7699 87.2857 41.207H89.0028C89.0403 41.6292 89.2045 41.9763 89.4954 42.2484C89.7956 42.5205 90.2131 42.6566 90.748 42.6566C91.3015 42.6566 91.7331 42.5252 92.0428 42.2625C92.3524 41.9904 92.5072 41.6433 92.5072 41.221C92.5072 40.8926 92.4087 40.6252 92.2117 40.4188C92.024 40.2124 91.7847 40.0529 91.4939 39.9403C91.2124 39.8277 90.8183 39.7057 90.3117 39.5744C89.6736 39.4055 89.1529 39.2366 88.7494 39.0677C88.3554 38.8894 88.0176 38.6173 87.7361 38.2514C87.4546 37.8855 87.3139 37.3976 87.3139 36.7877C87.3139 36.2247 87.4546 35.7321 87.7361 35.3099C88.0176 34.8877 88.4117 34.564 88.9183 34.3388C89.425 34.1136 90.0114 34.001 90.6776 34.001C91.6252 34.001 92.3993 34.2403 92.9998 34.7188C93.6097 35.1879 93.9475 35.8353 94.0131 36.661H92.2398C92.2117 36.3045 92.0428 35.9995 91.7331 35.7462C91.4235 35.4929 91.0154 35.3662 90.5087 35.3662C90.0489 35.3662 89.6736 35.4835 89.3828 35.7181C89.0919 35.9526 88.9465 36.2904 88.9465 36.7314C88.9465 37.0316 89.0356 37.2803 89.2139 37.4773C89.4015 37.665 89.6361 37.8151 89.9176 37.9277C90.1991 38.0403 90.5838 38.1623 91.0717 38.2936C91.7191 38.4719 92.2445 38.6502 92.648 38.8284C93.0608 39.0067 93.408 39.2835 93.6894 39.6588C93.9803 40.0247 94.1257 40.5173 94.1257 41.1366C94.1257 41.6339 93.9897 42.103 93.7176 42.544C93.4549 42.985 93.0655 43.3415 92.5494 43.6136C92.0428 43.8763 91.4423 44.0077 90.748 44.0077ZM97.8908 37.4632V41.7558C97.8908 42.0467 97.9565 42.2578 98.0878 42.3892C98.2286 42.5112 98.4631 42.5721 98.7915 42.5721H99.7767V43.9092H98.51C97.7876 43.9092 97.234 43.7403 96.8493 43.4025C96.4646 43.0647 96.2723 42.5158 96.2723 41.7558V37.4632H95.3574V36.1544H96.2723V34.2262H97.8908V36.1544H99.7767V37.4632H97.8908ZM104.619 44.0358C103.887 44.0358 103.226 43.8716 102.635 43.5433C102.044 43.2055 101.579 42.7363 101.241 42.1358C100.904 41.526 100.735 40.8223 100.735 40.0247C100.735 39.2366 100.908 38.5376 101.255 37.9277C101.603 37.3178 102.076 36.8487 102.677 36.5203C103.277 36.1919 103.948 36.0277 104.69 36.0277C105.431 36.0277 106.102 36.1919 106.702 36.5203C107.303 36.8487 107.776 37.3178 108.124 37.9277C108.471 38.5376 108.644 39.2366 108.644 40.0247C108.644 40.8129 108.466 41.5119 108.11 42.1218C107.753 42.7316 107.265 43.2055 106.646 43.5433C106.036 43.8716 105.36 44.0358 104.619 44.0358ZM104.619 42.6425C105.032 42.6425 105.417 42.544 105.773 42.347C106.139 42.1499 106.435 41.8544 106.66 41.4603C106.885 41.0662 106.998 40.5877 106.998 40.0247C106.998 39.4618 106.89 38.9879 106.674 38.6032C106.458 38.2092 106.172 37.9136 105.815 37.7166C105.459 37.5195 105.074 37.421 104.661 37.421C104.249 37.421 103.864 37.5195 103.507 37.7166C103.16 37.9136 102.883 38.2092 102.677 38.6032C102.471 38.9879 102.367 39.4618 102.367 40.0247C102.367 40.8598 102.578 41.5072 103.001 41.967C103.432 42.4173 103.972 42.6425 104.619 42.6425ZM111.835 37.2803C112.069 36.8862 112.379 36.5813 112.764 36.3655C113.158 36.1403 113.622 36.0277 114.157 36.0277V37.6884H113.749C113.12 37.6884 112.642 37.8479 112.313 38.167C111.994 38.486 111.835 39.0395 111.835 39.8277V43.9092H110.23V36.1544H111.835V37.2803ZM122.739 39.8418C122.739 40.1326 122.721 40.3953 122.683 40.6299H116.758C116.805 41.2492 117.035 41.7465 117.447 42.1218C117.86 42.4971 118.367 42.6847 118.967 42.6847C119.831 42.6847 120.441 42.3235 120.797 41.601H122.528C122.294 42.3141 121.867 42.9005 121.248 43.3603C120.638 43.8107 119.878 44.0358 118.967 44.0358C118.226 44.0358 117.56 43.8716 116.969 43.5433C116.387 43.2055 115.927 42.7363 115.59 42.1358C115.261 41.526 115.097 40.8223 115.097 40.0247C115.097 39.2272 115.257 38.5282 115.576 37.9277C115.904 37.3178 116.359 36.8487 116.941 36.5203C117.532 36.1919 118.207 36.0277 118.967 36.0277C119.699 36.0277 120.351 36.1872 120.924 36.5062C121.496 36.8252 121.942 37.2756 122.261 37.8573C122.58 38.4297 122.739 39.0911 122.739 39.8418ZM121.065 39.3351C121.055 38.744 120.844 38.2702 120.431 37.9136C120.018 37.5571 119.507 37.3788 118.897 37.3788C118.344 37.3788 117.87 37.5571 117.476 37.9136C117.082 38.2608 116.847 38.7346 116.772 39.3351H121.065Z" fill="white"/>
<defs>
<clipPath id="clip0_511_2036">
<rect width="20.4074" height="20.4074" fill="white" transform="translate(29.9968 29.502)"/>
</clipPath>
</defs>
</svg>
